<svg xmlns="http://www.w3.org/2000/svg" xmlns:xlink="http://www.w3.org/1999/xlink" preserveAspectRatio="xMidYMid" width="888" height="240" viewBox="0 0 888 240">
  <defs>
    <style>
      .cls-1 {
        fill: #212121;
        shape-rendering: auto;
      }

      .cls-1, .cls-4 {
        fill-rule: evenodd;
        shape-rendering: auto;
      }

      .cls-2 {
        fill: #b6b6b6;
        stroke: #bfbfbf;
        stroke-linejoin: round;
        stroke-width: 1px;
        fill-opacity: 0.1;
        shape-rendering: auto;
      }

      .cls-3 {
        fill: #b3e5fc;
        shape-rendering: auto;
      }

      .cls-4 {
        stroke: #03a9f4;
        stroke-width: 4.5px;
        fill: none;
        shape-rendering: auto;
      }

      .cls-5 {
        fill: #ffcdd2;
        stroke: #f44336;
        stroke-width: 5px;
        fill-opacity: 0;
        shape-rendering: auto;
      }
    </style>
  </defs>
  <path d="M719.666,140.365 C717.296,143.401 714.027,144.919 709.859,144.919 C707.743,144.919 705.886,144.565 704.289,143.856 C702.691,143.147 701.332,142.095 700.211,140.698 L700.211,152.536 L705.884,153.425 L705.884,157.456 L688.285,157.456 L688.285,153.425 L693.958,152.536 L693.958,114.831 L688.285,113.943 L688.285,109.912 L699.322,109.912 L699.893,114.101 C701.036,112.536 702.427,111.340 704.067,110.515 C705.706,109.690 707.606,109.277 709.764,109.277 C714.017,109.277 717.323,110.965 719.682,114.339 C722.041,117.715 723.221,122.174 723.221,127.717 L723.221,128.384 C723.221,133.335 722.036,137.329 719.666,140.365 ZM716.937,127.717 C716.937,123.803 716.175,120.597 714.652,118.100 C713.128,115.604 710.864,114.355 707.860,114.355 C706.082,114.355 704.559,114.757 703.289,115.561 C702.020,116.366 700.993,117.466 700.211,118.862 L700.211,135.588 C700.993,137.006 702.014,138.101 703.274,138.873 C704.532,139.646 706.082,140.032 707.923,140.032 C710.885,140.032 713.128,138.952 714.652,136.794 C716.175,134.636 716.937,131.833 716.937,128.384 L716.937,127.717 ZM677.502,141.745 C677.395,141.005 677.321,140.265 677.279,139.524 C676.073,141.068 674.566,142.354 672.757,143.380 C670.948,144.406 669.016,144.919 666.964,144.919 C663.388,144.919 660.669,144.046 658.808,142.301 C656.946,140.555 656.015,138.096 656.015,134.922 C656.015,131.664 657.332,129.151 659.966,127.384 C662.600,125.617 666.213,124.734 670.805,124.734 L677.248,124.734 L677.248,120.735 C677.248,118.725 676.613,117.132 675.343,115.958 C674.074,114.784 672.307,114.197 670.043,114.197 C668.477,114.197 667.096,114.398 665.901,114.800 C664.706,115.202 663.738,115.752 662.997,116.450 L662.331,120.568 L657.506,120.568 L657.506,113.403 C659.072,112.155 660.966,111.155 663.188,110.404 C665.409,109.653 667.821,109.277 670.424,109.277 C674.317,109.277 677.470,110.272 679.882,112.261 C682.294,114.250 683.500,117.096 683.500,120.798 L683.500,137.334 C683.500,137.778 683.505,138.212 683.516,138.635 C683.526,139.059 683.553,139.482 683.595,139.905 L686.634,140.254 L686.634,144.253 L677.946,144.253 C677.755,143.322 677.607,142.486 677.502,141.745 ZM677.248,128.955 L670.583,128.955 C668.022,128.955 665.996,129.548 664.505,130.732 C663.013,131.917 662.267,133.356 662.267,135.049 C662.267,136.551 662.732,137.699 663.664,138.492 C664.594,139.286 666.001,139.682 667.885,139.682 C669.958,139.682 671.852,139.186 673.566,138.191 C675.280,137.196 676.507,136.001 677.248,134.604 L677.248,128.955 ZM648.381,115.244 C646.731,115.244 645.345,115.630 644.223,116.402 C643.102,117.175 642.234,118.259 641.621,119.656 L641.621,139.365 L646.794,140.254 L646.794,144.253 L629.695,144.253 L629.695,140.254 L635.368,139.365 L635.368,114.831 L629.695,113.943 L629.695,109.912 L640.954,109.912 L641.557,114.895 C642.530,113.139 643.731,111.764 645.160,110.769 C646.588,109.775 648.222,109.277 650.063,109.277 C650.550,109.277 651.302,109.314 651.821,109.388 C652.339,109.463 652.986,109.792 653.261,109.876 L652.436,115.684 L648.381,115.244 ZM617.832,144.919 C615.293,144.919 613.272,144.153 611.770,142.618 C610.268,141.084 609.517,138.678 609.517,135.398 L609.517,114.546 L603.590,114.546 L603.590,109.912 L609.517,109.912 L609.517,101.628 L615.769,101.628 L615.769,109.912 L622.776,109.912 L622.776,114.546 L615.769,114.546 L615.769,135.398 C615.769,137.006 616.103,138.138 616.769,138.794 C617.436,139.450 618.319,139.778 619.419,139.778 C619.969,139.778 620.588,139.730 621.276,139.635 C621.963,139.540 622.790,139.189 623.256,139.083 L624.113,143.368 C623.520,143.749 622.403,144.311 621.260,144.554 C620.118,144.797 618.975,144.919 617.832,144.919 ZM585.284,124.480 C589.621,125.411 592.848,126.675 594.964,128.273 C597.080,129.870 598.138,132.013 598.138,134.700 C598.138,137.746 596.905,140.212 594.441,142.095 C591.975,143.978 588.754,144.919 584.776,144.919 C582.174,144.919 579.836,144.618 577.762,144.015 C575.688,143.412 573.837,142.539 572.208,141.396 L572.176,133.057 L576.874,133.057 L578.048,138.159 C578.767,138.815 579.746,139.291 580.984,139.587 C582.221,139.884 583.485,140.032 584.776,140.032 C586.998,140.032 588.738,139.582 589.997,138.683 C591.256,137.784 591.886,136.604 591.886,135.144 C591.886,133.769 591.362,132.637 590.315,131.748 C589.267,130.859 587.284,130.087 584.364,129.431 C580.195,128.521 577.053,127.284 574.937,125.718 C572.821,124.152 571.764,122.036 571.764,119.370 C571.764,116.577 572.954,114.197 575.334,112.229 C577.715,110.261 580.809,109.277 584.618,109.277 C587.220,109.277 589.558,109.616 591.632,110.293 C593.705,110.970 595.429,111.911 596.805,113.117 L597.123,121.203 L592.425,121.203 L591.410,116.577 C590.648,115.858 589.690,115.281 588.537,114.847 C587.384,114.414 586.078,114.197 584.618,114.197 C582.396,114.197 580.746,114.684 579.666,115.657 C578.587,116.630 578.048,117.804 578.048,119.180 C578.048,120.534 578.524,121.603 579.476,122.385 C580.428,123.168 582.364,123.866 585.284,124.480 ZM558.481,144.919 C555.941,144.919 553.921,144.153 552.419,142.618 C550.916,141.084 550.165,138.678 550.165,135.398 L550.165,114.546 L544.238,114.546 L544.238,109.912 L550.165,109.912 L550.165,101.628 L556.418,101.628 L556.418,109.912 L563.424,109.912 L563.424,114.546 L556.418,114.546 L556.418,135.398 C556.418,137.006 556.751,138.138 557.417,138.794 C558.084,139.450 558.967,139.778 560.067,139.778 C560.617,139.778 561.236,139.730 561.924,139.635 C562.611,139.540 563.188,139.439 563.654,139.333 L564.511,143.618 C563.918,143.999 563.051,144.311 561.908,144.554 C560.766,144.797 559.623,144.919 558.481,144.919 ZM526.916,144.919 C522.155,144.919 518.399,143.285 515.649,140.016 C512.898,136.747 511.523,132.563 511.523,127.463 L511.523,126.765 C511.523,121.687 512.898,117.503 515.649,114.212 C518.399,110.923 522.134,109.277 526.853,109.277 C531.592,109.277 535.343,110.917 538.104,114.197 C540.865,117.477 542.246,121.666 542.246,126.765 L542.246,127.463 C542.246,132.584 540.870,136.773 538.120,140.032 C535.369,143.290 531.634,144.919 526.916,144.919 ZM535.993,126.765 C535.993,123.168 535.221,120.174 533.676,117.783 C532.132,115.392 529.857,114.197 526.853,114.197 C523.848,114.197 521.584,115.392 520.061,117.783 C518.537,120.174 517.776,123.168 517.776,126.765 L517.776,127.463 C517.776,131.103 518.542,134.107 520.077,136.477 C521.610,138.847 523.890,140.032 526.916,140.032 C529.878,140.032 532.132,138.847 533.676,136.477 C535.221,134.107 535.993,131.103 535.993,127.463 L535.993,126.765 ZM492.908,144.919 C488.147,144.919 484.391,143.285 481.641,140.016 C478.890,136.747 477.515,132.563 477.515,127.463 L477.515,126.765 C477.515,121.687 478.890,117.503 481.641,114.212 C484.391,110.923 488.126,109.277 492.845,109.277 C497.584,109.277 501.335,110.917 504.096,114.197 C506.857,117.477 508.238,121.666 508.238,126.765 L508.238,127.463 C508.238,132.584 506.862,136.773 504.112,140.032 C501.361,143.290 497.626,144.919 492.908,144.919 ZM501.985,126.765 C501.985,123.168 501.213,120.174 499.668,117.783 C498.124,115.392 495.849,114.197 492.845,114.197 C489.840,114.197 487.576,115.392 486.053,117.783 C484.529,120.174 483.767,123.168 483.767,126.765 L483.767,127.463 C483.767,131.103 484.534,134.107 486.068,136.477 C487.602,138.847 489.882,140.032 492.908,140.032 C495.870,140.032 498.124,138.847 499.668,136.477 C501.213,134.107 501.985,131.103 501.985,127.463 L501.985,126.765 ZM471.754,131.208 C471.754,135.440 470.378,138.672 467.628,140.904 C464.877,143.137 461.153,144.253 456.456,144.253 L433.739,144.253 L433.739,140.254 L439.413,139.365 L439.413,102.961 L433.739,102.073 L433.739,98.042 L439.413,98.042 L454.488,98.042 C459.312,98.042 463.084,99.084 465.803,101.168 C468.521,103.252 469.881,106.379 469.881,110.547 C469.881,112.599 469.231,114.435 467.929,116.053 C466.628,117.672 464.909,118.873 462.772,119.656 C465.544,120.248 467.733,121.613 469.342,123.750 C470.950,125.887 471.754,128.373 471.754,131.208 ZM463.629,110.420 C463.629,107.923 462.846,106.056 461.280,104.818 C459.714,103.580 457.450,102.961 454.488,102.961 L445.665,102.961 L445.665,117.688 L456.107,117.688 C458.349,117.624 460.164,116.958 461.550,115.688 C462.936,114.419 463.629,112.663 463.629,110.420 ZM463.486,124.892 C462.163,123.348 460.138,122.575 457.408,122.575 L445.665,122.575 L445.665,139.365 L456.456,139.365 C459.312,139.365 461.529,138.662 463.105,137.254 C464.681,135.848 465.470,133.853 465.470,131.272 C465.470,128.564 464.808,126.437 463.486,124.892 ZM410.280,122.290 L430.050,122.290 L430.050,127.178 L410.280,127.178 L410.280,122.290 ZM401.960,144.253 L395.708,144.253 L373.491,108.579 L373.301,108.642 L373.301,139.365 L378.974,140.254 L378.974,144.253 L361.375,144.253 L361.375,140.254 L367.048,139.365 L367.048,102.961 L361.375,102.073 L361.375,98.042 L367.048,98.042 L373.301,98.042 L395.517,133.684 L395.708,133.620 L395.708,102.961 L390.034,102.073 L390.034,98.042 L401.960,98.042 L407.633,98.042 L407.633,102.073 L401.960,102.961 L401.960,144.253 ZM340.435,125.718 L330.628,125.718 L330.628,139.365 L336.301,140.254 L336.301,144.253 L318.702,144.253 L318.702,140.254 L324.375,139.365 L324.375,102.961 L318.702,102.073 L318.702,98.042 L324.375,98.042 L340.435,98.042 C345.365,98.042 349.200,99.311 351.940,101.850 C354.680,104.389 356.050,107.733 356.050,111.880 C356.050,116.069 354.680,119.423 351.940,121.941 C349.200,124.459 345.365,125.718 340.435,125.718 ZM347.465,105.532 C345.910,103.818 343.566,102.961 340.435,102.961 L330.628,102.961 L330.628,120.830 L340.435,120.830 C343.566,120.830 345.910,119.989 347.465,118.307 C349.020,116.625 349.798,114.504 349.798,111.943 C349.798,109.383 349.020,107.246 347.465,105.532 ZM295.953,144.253 L290.589,144.253 L275.101,102.580 L270.919,102.073 L270.919,98.042 L286.519,98.042 L286.519,102.073 L281.798,102.739 L292.145,132.763 L293.192,136.413 L293.382,136.413 L294.430,132.763 L304.745,102.707 L300.087,102.073 L300.087,98.042 L315.655,98.042 L315.655,102.073 L311.441,102.580 L295.953,144.253 Z" class="cls-1"/>
  <rect x="97" y="56" width="128" height="128" rx="35" ry="35" class="cls-2"/>
  <circle cx="188.5" cy="92.5" r="20" class="cls-3"/>
  <circle cx="133.5" cy="147.5" r="20" class="cls-3"/>
  <path d="M131.000,150.000 L191.000,90.000 " class="cls-4"/>
  <circle cx="189" cy="93" r="20" class="cls-5"/>
  <circle cx="134" cy="148" r="20" class="cls-5"/>
</svg>
